<svg xmlns="http://www.w3.org/2000/svg" viewBox="0 0 397 311" fill="none">
  <defs>
    <linearGradient id="sol-grad-1" x1="0%" y1="0%" x2="100%" y2="0%">
      <stop offset="0%" style="stop-color:#9945FF"/>
      <stop offset="100%" style="stop-color:#14F195"/>
    </linearGradient>
    <linearGradient id="sol-grad-2" x1="0%" y1="0%" x2="100%" y2="0%">
      <stop offset="0%" style="stop-color:#9945FF"/>
      <stop offset="100%" style="stop-color:#14F195"/>
    </linearGradient>
    <linearGradient id="sol-grad-3" x1="0%" y1="0%" x2="100%" y2="0%">
      <stop offset="0%" style="stop-color:#9945FF"/>
      <stop offset="100%" style="stop-color:#14F195"/>
    </linearGradient>
  </defs>
  <!-- Top bar -->
  <path d="M64.6 237.9c2.4-2.4 5.7-3.8 9.2-3.8h317.4c5.8 0 8.7 7 4.6 11.1l-62.7 62.7c-2.4 2.4-5.7 3.8-9.2 3.8H6.5c-5.8 0-8.7-7-4.6-11.1l62.7-62.7z" fill="url(#sol-grad-1)"/>
  <!-- Middle bar -->
  <path d="M64.6 3.8C67.1 1.4 70.4 0 73.8 0h317.4c5.8 0 8.7 7 4.6 11.1l-62.7 62.7c-2.4 2.4-5.7 3.8-9.2 3.8H6.5c-5.8 0-8.7-7-4.6-11.1L64.6 3.8z" fill="url(#sol-grad-2)"/>
  <!-- Bottom bar -->
  <path d="M333.1 120.1c-2.4-2.4-5.7-3.8-9.2-3.8H6.5c-5.8 0-8.7 7-4.6 11.1l62.7 62.7c2.4 2.4 5.7 3.8 9.2 3.8h317.4c5.8 0 8.7-7 4.6-11.1l-62.7-62.7z" fill="url(#sol-grad-3)"/>
</svg>
